<svg viewBox="0 0 101 101"><g transform="translate(-30 -107)"><path d="m30 108h101v101h-101z" fill="#142700"/><g fill="#fff"><g fill-rule="evenodd"><path d="m83 144c.2 3 2 5 4 7 .9.8 2 2 2 3 .04 2-2 3-3 3-2-.1-4-2-5-4-.5 3-1 7-2 10 4 2 8 2 12 .03 5-2 7-8 7-13-.3-2-2-4-4-6-4-.001-7-.002-11-.003z" stroke-width=".09"/><polygon class="cls-5" transform="matrix(.09 0 0 .09 32 103)" points="859 425 768 425 735 631 827 631"/><path class="cls-5" d="m94 131c-5 0-9 3-10 6h35l1-6z" stroke-width=".09"/></g><path class="cls-6" d="m48 197 8-54h-5l2-13h24l-10 66z" stroke-width=".09"/></g><path d="m30 184h101v24h-101z" fill="#ff8000"/></g></svg>
